<svg width="28" height="29" viewBox="0 0 28 29" fill="none" xmlns="http://www.w3.org/2000/svg">
<g clip-path="url(#clip0_2_7239)">
<path d="M7.12499 0.665771C6.58254 0.665771 6.14282 1.10549 6.14282 1.64793V3.6122H8.10709V1.64793C8.10709 1.10549 7.66737 0.665771 7.12499 0.665771Z" fill="white"/>
<path d="M20.875 0.665771C20.3325 0.665771 19.8928 1.10549 19.8928 1.64793V3.6122H21.8571V1.64793C21.8571 1.10549 21.4174 0.665771 20.875 0.665771Z" fill="white"/>
<path d="M24.8036 3.61221H21.8571V7.5408C21.8571 8.08324 21.4174 8.52296 20.875 8.52296C20.3325 8.52296 19.8928 8.08324 19.8928 7.5408V3.61221H8.10712V7.5408C8.10712 8.08324 7.6674 8.52296 7.12496 8.52296C6.58252 8.52296 6.1428 8.08324 6.1428 7.5408V3.61221H3.19643C1.56916 3.61221 0.25 4.93137 0.25 6.55864V25.2194C0.25 26.8466 1.56916 28.1658 3.19643 28.1658H24.8036C26.4308 28.1658 27.75 26.8466 27.75 25.2194V6.55864C27.75 4.93137 26.4308 3.61221 24.8036 3.61221ZM25.7857 25.2194C25.7857 25.7618 25.346 26.2015 24.8035 26.2015H3.19643C2.65399 26.2015 2.21427 25.7618 2.21427 25.2194V12.4515H25.7857V25.2194Z" fill="white"/>
<path d="M8.10708 14.4157H6.14281C5.60036 14.4157 5.16064 14.8555 5.16064 15.3979C5.16064 15.9404 5.60036 16.3801 6.14281 16.3801H8.10708C8.64952 16.3801 9.08924 15.9404 9.08924 15.3979C9.08924 14.8555 8.64952 14.4157 8.10708 14.4157Z" fill="white"/>
<path d="M14.9822 14.4157H13.0179C12.4755 14.4157 12.0358 14.8555 12.0358 15.3979C12.0358 15.9404 12.4755 16.3801 13.0179 16.3801H14.9822C15.5246 16.3801 15.9644 15.9404 15.9644 15.3979C15.9644 14.8555 15.5246 14.4157 14.9822 14.4157Z" fill="white"/>
<path d="M21.8572 14.4157H19.8929C19.3505 14.4157 18.9108 14.8555 18.9108 15.3979C18.9108 15.9404 19.3505 16.3801 19.8929 16.3801H21.8572C22.3996 16.3801 22.8394 15.9404 22.8394 15.3979C22.8394 14.8555 22.3996 14.4157 21.8572 14.4157Z" fill="white"/>
<path d="M8.10708 18.3443H6.14281C5.60036 18.3443 5.16064 18.784 5.16064 19.3265C5.16064 19.8689 5.60036 20.3087 6.14281 20.3087H8.10708C8.64952 20.3087 9.08924 19.8689 9.08924 19.3265C9.08924 18.784 8.64952 18.3443 8.10708 18.3443Z" fill="white"/>
<path d="M14.9822 18.3443H13.0179C12.4755 18.3443 12.0358 18.784 12.0358 19.3265C12.0358 19.8689 12.4755 20.3087 13.0179 20.3087H14.9822C15.5246 20.3087 15.9644 19.8689 15.9644 19.3265C15.9644 18.784 15.5246 18.3443 14.9822 18.3443Z" fill="white"/>
<path d="M21.8572 18.3443H19.8929C19.3505 18.3443 18.9108 18.784 18.9108 19.3265C18.9108 19.8689 19.3505 20.3087 19.8929 20.3087H21.8572C22.3996 20.3087 22.8394 19.8689 22.8394 19.3265C22.8393 18.784 22.3996 18.3443 21.8572 18.3443Z" fill="white"/>
<path d="M8.10708 22.2729H6.14281C5.60036 22.2729 5.16064 22.7126 5.16064 23.255C5.16064 23.7975 5.60036 24.2372 6.14281 24.2372H8.10708C8.64952 24.2372 9.08924 23.7974 9.08924 23.255C9.08924 22.7125 8.64952 22.2729 8.10708 22.2729Z" fill="white"/>
<path d="M14.9822 22.2729H13.0179C12.4755 22.2729 12.0358 22.7126 12.0358 23.255C12.0358 23.7975 12.4755 24.2372 13.0179 24.2372H14.9822C15.5246 24.2372 15.9644 23.7975 15.9644 23.255C15.9644 22.7126 15.5246 22.2729 14.9822 22.2729Z" fill="white"/>
<path d="M21.8572 22.2729H19.8929C19.3505 22.2729 18.9108 22.7126 18.9108 23.255C18.9108 23.7975 19.3505 24.2372 19.8929 24.2372H21.8572C22.3996 24.2372 22.8394 23.7975 22.8394 23.255C22.8394 22.7126 22.3996 22.2729 21.8572 22.2729Z" fill="white"/>
</g>
<defs>
<clipPath id="clip0_2_7239">
<rect width="27.5" height="27.5" fill="white" transform="translate(0.25 0.665771)"/>
</clipPath>
</defs>
</svg>
